<?xml version="1.0" encoding="utf-8"?>
<!-- Generator: Adobe Illustrator 23.0.4, SVG Export Plug-In . SVG Version: 6.00 Build 0)  -->
<svg version="1.1" id="Layer_1" xmlns="http://www.w3.org/2000/svg" xmlns:xlink="http://www.w3.org/1999/xlink" x="0px" y="0px"
	 viewBox="0 0 32 32" style="enable-background:new 0 0 32 32;" xml:space="preserve">
<style type="text/css">
	.st0{fill:#008AD0;}
	.st1{fill:#333333;}
</style>
<g>
	<g>
		<path class="st1" d="M28,27H4c-1.654,0-3-1.346-3-3V9c0-1.654,1.346-3,3-3h24c1.654,0,3,1.346,3,3v15C31,25.654,29.654,27,28,27z
			 M4,8C3.449,8,3,8.449,3,9v15c0,0.551,0.449,1,1,1h24c0.551,0,1-0.449,1-1V9c0-0.551-0.449-1-1-1H4z"/>
	</g>
	<g>
		<path class="st1" d="M5.001,24c-0.302,0-0.6-0.136-0.797-0.395c-0.334-0.44-0.249-1.067,0.19-1.401l8.06-6.129
			c0.441-0.335,1.067-0.25,1.401,0.19c0.334,0.44,0.249,1.067-0.19,1.401l-8.06,6.129C5.424,23.934,5.212,24,5.001,24z"/>
	</g>
	<g>
		<path class="st1" d="M26.999,24c-0.211,0-0.423-0.066-0.604-0.204l-8.06-6.129c-0.439-0.334-0.525-0.961-0.19-1.401
			s0.961-0.525,1.401-0.19l8.06,6.129c0.439,0.334,0.525,0.961,0.19,1.401C27.599,23.864,27.301,24,26.999,24z"/>
	</g>
	<g>
		<path class="st0" d="M16,20.014c-0.225,0-0.45-0.076-0.634-0.227l-11-9.014c-0.427-0.35-0.49-0.98-0.14-1.407
			c0.351-0.427,0.98-0.489,1.407-0.14L16,17.721l10.366-8.494c0.427-0.349,1.057-0.287,1.407,0.14
			c0.35,0.427,0.288,1.057-0.14,1.407l-11,9.014C16.45,19.938,16.225,20.014,16,20.014z"/>
	</g>
</g>
</svg>
